<svg width="500" height="500" viewBox="0 0 500 500" fill="none" xmlns="http://www.w3.org/2000/svg">
<rect width="500" height="500" rx="100" fill="url(#paint0_linear_2829_3)"/>
<path d="M216.376 270.328L187.954 196.25H166.147L137.562 270.328L108.976 196.25H75L125.066 326.519H146.872L176.928 248.929L207.147 326.519H228.954L278.856 196.25H245.125L216.54 270.328H216.376Z" fill="white"/>
<path fill-rule="evenodd" clip-rule="evenodd" d="M354.924 190.926C340.387 190.926 327.156 195.337 315.967 202.85V134H284.849V260.919C284.849 299.552 316.293 330.668 354.761 330.668C393.229 330.668 425 299.797 425 260.593C425 221.39 393.882 190.845 354.924 190.845V190.926ZM354.761 299.552C333.69 299.552 315.967 282.727 315.967 260.757C315.967 238.787 332.628 222.125 354.924 222.125C377.221 222.125 393.882 239.522 393.882 260.757C393.882 281.991 376.159 299.552 354.761 299.552Z" fill="white"/>
<defs>
<linearGradient id="paint0_linear_2829_3" x1="364.13" y1="2.77806e-06" x2="598.702" y2="51.6384" gradientUnits="userSpaceOnUse">
<stop stop-color="#DA15B8"/>
<stop offset="1" stop-color="#8D06CC"/>
</linearGradient>
</defs>
</svg>
